<?xml version="1.0" encoding="UTF-8" standalone="no"?>
<!DOCTYPE svg PUBLIC "-//W3C//DTD SVG 1.1//EN" "http://www.w3.org/Graphics/SVG/1.1/DTD/svg11.dtd">
<svg width="100%" height="100%" viewBox="0 0 3345 3241" version="1.1" xmlns="http://www.w3.org/2000/svg" xmlns:xlink="http://www.w3.org/1999/xlink" xml:space="preserve" xmlns:serif="http://www.serif.com/" style="fill-rule:evenodd;clip-rule:evenodd;stroke-linejoin:round;stroke-miterlimit:2;">
    <path d="M68.014,3240.86L990.631,1534.61L0,1534.61L0,1156.1L1499.25,1156.1L1499.25,1499.13L573.679,3240.86L68.014,3240.86ZM2247.4,3240.86L2247.4,1156.1L2705.76,1156.1L2705.76,3240.86L2247.4,3240.86ZM2886.14,3240.86L2886.14,1156.1L3344.49,1156.1L3344.49,3240.86L2886.14,3240.86ZM1608.67,3240.86L1608.67,1156.1L2067.02,1156.1L2067.02,3240.86L1608.67,3240.86ZM1545.81,998.899L1535.52,887.749L1583.89,882.603C1630.54,877.114 1653.87,850.356 1653.87,802.328L1653.87,294.949L1809.27,294.949L1809.27,781.745C1809.27,829.086 1802.24,867.852 1788.17,898.04C1774.11,928.229 1751.12,951.214 1719.22,966.995C1687.32,982.775 1644.26,992.381 1590.06,995.811L1545.81,998.899ZM0,985.519L0,294.949L152.316,294.949L152.316,370.079C166.039,344.006 187.137,323.252 215.61,307.814C244.084,292.377 276.159,284.658 311.837,284.658C355.748,284.658 394.342,295.293 427.618,316.562C460.895,337.831 486.795,368.02 505.32,407.129C523.845,446.237 533.108,492.892 533.108,547.095C533.108,601.298 523.845,648.125 505.32,687.576C486.795,727.027 460.895,757.559 427.618,779.172C394.342,800.784 355.748,811.591 311.837,811.591C278.218,811.591 247.514,804.386 219.727,789.978C191.939,775.57 170.498,756.359 155.404,732.345L155.404,985.519L0,985.519ZM2733.9,811.591C2679.01,811.591 2631.15,800.784 2590.33,779.172C2549.51,757.559 2518.12,726.856 2496.16,687.062C2474.2,647.267 2463.23,600.269 2463.23,546.066C2463.23,491.863 2474.2,445.208 2496.16,406.099C2518.12,366.991 2549.51,336.974 2590.33,316.047C2631.15,295.121 2679.01,284.658 2733.9,284.658C2766.14,284.658 2798.74,289.461 2831.67,299.066C2864.6,308.672 2891.36,322.394 2911.94,340.233L2868.72,447.266C2851.57,433.544 2832.35,422.738 2811.09,414.847C2789.82,406.957 2769.23,403.012 2749.34,403.012C2708.86,403.012 2677.47,415.533 2655.17,440.576C2632.87,465.619 2621.72,501.126 2621.72,547.095C2621.72,592.378 2632.87,627.885 2655.17,653.614C2677.47,679.343 2708.86,692.207 2749.34,692.207C2768.55,692.207 2788.96,688.434 2810.57,680.887C2832.18,673.339 2851.57,662.362 2868.72,647.953L2911.94,754.986C2891.36,772.825 2864.6,786.719 2831.67,796.668C2798.74,806.616 2766.14,811.591 2733.9,811.591ZM3234.37,811.591C3092.35,811.591 3021.33,742.636 3021.33,604.728L3021.33,411.245L2960.02,411.245L2960.02,294.949L3021.33,294.949L3021.33,146.75L3176.74,146.75L3176.74,294.949L3325.97,294.949L3325.97,411.245L3176.74,411.245L3176.74,598.553C3176.74,627.37 3183.43,648.982 3196.81,663.391C3210.18,677.799 3231.62,685.003 3261.13,685.003C3270.05,685.003 3279.48,683.974 3289.43,681.916C3299.38,679.857 3310.18,677.113 3321.85,673.682L3344.49,786.891C3330.08,794.438 3312.93,800.441 3293.03,804.901C3273.14,809.361 3253.58,811.591 3234.37,811.591ZM2192.12,811.591C2132.43,811.591 2081.14,800.784 2038.26,779.172C1995.38,757.559 1962.45,727.027 1939.46,687.576C1916.48,648.125 1904.99,601.641 1904.99,548.124C1904.99,495.98 1916.13,450.182 1938.43,410.731C1960.73,371.279 1991.26,340.404 2030.03,318.106C2068.79,295.807 2113.56,284.658 2164.34,284.658C2237.75,284.658 2296.07,307.814 2339.29,354.127C2382.52,400.439 2404.13,463.047 2404.13,541.949L2404.13,581.057L2053.18,581.057C2058.67,620.852 2073.25,649.84 2096.93,668.022C2120.6,686.204 2153.36,695.295 2195.21,695.295C2222.65,695.295 2250.44,691.178 2278.57,682.945C2306.7,674.712 2332.09,662.018 2354.73,644.866L2395.9,748.811C2370.51,768.023 2339.46,783.288 2302.76,794.609C2266.05,805.93 2229.17,811.591 2192.12,811.591ZM1285.43,811.591C1231.23,811.591 1184.06,800.784 1143.92,779.172C1103.78,757.559 1072.73,727.027 1050.78,687.576C1028.82,648.125 1017.85,601.298 1017.85,547.095C1017.85,493.578 1028.82,447.094 1050.78,407.643C1072.73,368.192 1103.78,337.831 1143.92,316.562C1184.06,295.293 1231.23,284.658 1285.43,284.658C1339.63,284.658 1386.8,295.293 1426.94,316.562C1467.08,337.831 1498.29,368.192 1520.59,407.643C1542.89,447.094 1554.04,493.578 1554.04,547.095C1554.04,601.298 1542.89,648.125 1520.59,687.576C1498.29,727.027 1467.08,757.559 1426.94,779.172C1386.8,800.784 1339.63,811.591 1285.43,811.591ZM627.791,800.27L627.791,294.949L780.107,294.949L780.107,382.429C804.121,323.423 855.58,290.833 934.482,284.658L979.765,281.57L989.028,412.274L901.549,421.537C824.705,429.084 786.282,468.192 786.282,538.862L786.282,800.27L627.791,800.27ZM265.525,695.295C298.458,695.295 325.216,683.288 345.8,659.274C366.383,635.26 376.675,597.867 376.675,547.095C376.675,497.009 366.383,460.131 345.8,436.46C325.216,412.789 298.458,400.954 265.525,400.954C231.905,400.954 204.804,412.789 184.221,436.46C163.637,460.131 153.346,497.009 153.346,547.095C153.346,597.867 163.637,635.26 184.221,659.274C204.804,683.288 231.905,695.295 265.525,695.295ZM1285.43,695.295C1318.36,695.295 1345.29,683.288 1366.22,659.274C1387.14,635.26 1397.61,597.867 1397.61,547.095C1397.61,497.009 1387.14,460.131 1366.22,436.46C1345.29,412.789 1318.36,400.954 1285.43,400.954C1252.49,400.954 1225.74,412.789 1205.15,436.46C1184.57,460.131 1174.28,497.009 1174.28,547.095C1174.28,597.867 1184.57,635.26 1205.15,659.274C1225.74,683.288 1252.49,695.295 1285.43,695.295ZM2170.51,387.574C2137.58,387.574 2110.99,397.523 2090.75,417.42C2070.51,437.317 2057.99,465.105 2053.18,500.783L2275.49,500.783C2271.37,425.31 2236.38,387.574 2170.51,387.574ZM1737.86,0C1783.78,0 1821.06,37.282 1821.06,83.204C1821.06,129.125 1783.78,166.408 1737.86,166.408C1691.94,166.408 1654.66,129.125 1654.66,83.204C1654.66,37.282 1691.94,0 1737.86,0Z" style="fill:#333333;fill-rule:nonzero;"/>
</svg>
